<?xml version="1.0" standalone="no"?>
<!DOCTYPE svg PUBLIC "-//W3C//DTD SVG 1.1//EN" "http://www.w3.org/Graphics/SVG/1.1/DTD/svg11.dtd" >
<svg xmlns="http://www.w3.org/2000/svg" xmlns:xlink="http://www.w3.org/1999/xlink" version="1.1">
<metadata>
Created by FontForge 20190801 at Thu Feb  7 06:20:41 2019
 By root
ROMANTICEMJB Letters 2019. All Rights Reserved
</metadata>
<defs>
<font id="ROMANTICE" horiz-adv-x="1280" >
  <font-face 
    font-family="ROMANTICE"
    font-weight="400"
    font-stretch="normal"
    units-per-em="2048"
    panose-1="2 0 5 0 0 0 0 0 0 0"
    ascent="1638"
    descent="-410"
    x-height="1429"
    cap-height="1429"
    bbox="-6833 -1159 4787 1516"
    underline-thickness="150"
    underline-position="-292"
    unicode-range="U+001D-E034"
  />
<missing-glyph horiz-adv-x="1024" 
 />
    <glyph glyph-name="A_H" unicode="AH" horiz-adv-x="2731" 
d="M768 1420c9 0 30 -72 64 -216l164 -604c271 80 447 129 528 148v648c-59 11 -97 16 -112 16v8h464v-8h-4l-108 -16v-592c153 32 286 48 400 48h116v544c-60 11 -96 16 -108 16v8h460v-8h-4l-108 -16v-580c121 -21 254 -87 400 -200v-4h-4c-119 93 -251 155 -396 184v-772
c55 -11 89 -16 104 -16v-8h-448v8h4c67 7 100 13 100 20v792h-4c-150 0 -321 -24 -512 -72v-724c55 -11 89 -16 104 -16v-8h-448v8c69 6 104 13 104 20v656l-508 -160c77 -294 123 -461 136 -500c66 -11 103 -16 112 -16v-8h-448v8c61 5 92 11 92 16l-116 440
c-130 -32 -242 -48 -336 -48c-48 5 -88 8 -120 8l-108 -396c40 -13 63 -20 68 -20v-8h-208v8c53 14 80 25 80 32c72 260 108 396 108 408h-4c-90 31 -163 92 -220 184c-35 65 -52 105 -52 120l56 -100c79 -93 159 -140 240 -140c149 562 231 865 244 908h228zM356 496h4
c24 0 44 -1 60 -4c74 0 192 16 352 48c-133 492 -200 742 -200 752c-6 0 -33 -96 -80 -288c-51 -179 -96 -348 -136 -508zM2924 608h4c4 0 10 -5 16 -16h-4c-4 0 -9 5 -16 16zM2956 580h4c3 0 15 -12 36 -36h-4c-3 0 -15 12 -36 36zM3012 528h4v-8h-4v8z" />
    <glyph glyph-name=".notdef" horiz-adv-x="1024" 
 />
    <glyph glyph-name=".null" horiz-adv-x="0" 
 />
    <glyph glyph-name=".null" horiz-adv-x="0" 
 />
    <glyph glyph-name="nonmarkingreturn" horiz-adv-x="508" 
 />
    <glyph glyph-name="space" unicode=" " horiz-adv-x="508" 
 />
    <glyph glyph-name="space" unicode="&#xa0;" horiz-adv-x="508" 
 />
    <glyph glyph-name="A" unicode="A" horiz-adv-x="1360" 
d="M840 1429c9 0 33 -81 72 -244l312 -1152c78 -13 123 -20 136 -20v-8h-492v8h4l112 16c-77 282 -119 438 -124 468h-436l-120 -460c35 -13 56 -20 64 -20v-8h-208v8c56 13 84 26 84 40c245 914 368 1371 368 1372h228zM640 1301c-125 -468 -191 -716 -196 -744h396
l-196 744h-4z" />
    <glyph glyph-name="B" unicode="B" 
d="M160 1429h668c161 0 275 -56 340 -168c40 -62 60 -131 60 -208c0 -137 -64 -245 -192 -324v-4c86 -29 153 -87 200 -172c29 -55 44 -111 44 -168v-12c0 -133 -65 -240 -196 -320c-55 -29 -110 -44 -164 -44h-744v8h4c9 0 43 6 104 16v1372l-124 16v8zM524 1365v-616h236
c105 0 180 60 224 180c13 35 20 75 20 120v12c0 140 -55 236 -164 288c-25 11 -55 16 -92 16h-224zM524 685v-616h196c137 0 224 34 260 100c43 58 64 123 64 196v24c0 140 -63 236 -188 288c-25 6 -45 8 -60 8h-272z" />
    <glyph glyph-name="C" unicode="C" horiz-adv-x="1044" 
d="M692 1429c96 0 193 -29 292 -88h16c12 0 24 27 36 80h8v-312h-8c-17 89 -43 148 -76 176c-68 54 -134 80 -200 80c-170 0 -283 -161 -340 -484c-8 -47 -12 -97 -12 -152v-76c0 -198 51 -362 152 -492c60 -58 119 -88 176 -88h16c3 0 4 -1 4 -4l8 4h12
c86 0 161 44 224 132c16 37 28 77 36 120h8v-312h-8c-10 56 -24 84 -44 84l-124 -60c-61 -18 -113 -28 -156 -28h-20c-233 0 -397 142 -492 424c-27 86 -40 176 -40 272v24c0 215 64 397 192 548c102 102 215 152 340 152z" />
    <glyph glyph-name="D" unicode="D" 
d="M160 1429h292c322 0 545 -85 668 -256c107 -130 160 -289 160 -476c0 -331 -157 -548 -472 -652c-85 -26 -217 -40 -396 -40c-19 3 -43 4 -72 4h-164v8h4c9 0 43 6 104 16v1372h-4l-120 16v8zM524 1365v-1296h4c255 0 423 140 504 420c19 76 28 152 28 228
c0 241 -79 431 -236 568c-80 54 -158 80 -232 80h-68z" />
    <glyph glyph-name="E" unicode="E" horiz-adv-x="1288" 
d="M160 1429h1120c5 0 8 -3 8 -8v-244h-8v4c0 92 -47 152 -140 180c-23 3 -43 4 -60 4h-548v-556h424c48 0 76 42 84 124v12h8v-336h-8v12c0 72 -28 113 -84 124h-424v-676h504c120 0 192 28 216 84c19 43 28 77 28 104h8v-240c0 -5 -3 -8 -8 -8h-1104v8h4l112 16v1368
c-74 14 -118 20 -132 20v8z" />
    <glyph glyph-name="F" unicode="F" horiz-adv-x="1288" 
d="M160 1429h1120c5 0 8 -3 8 -8v-244h-8v4c0 89 -45 149 -136 180c-27 3 -49 4 -64 4h-548v-556h424c48 0 76 42 84 124v16h8v-340h-8v12c0 72 -28 113 -84 124h-424v-712c68 -10 106 -16 116 -16v-8h-472v8h4l112 16v1368c-74 14 -118 20 -132 20v8z" />
    <glyph glyph-name="G" unicode="G" horiz-adv-x="1276" 
d="M1036 1449h8v-312h-8c-25 110 -50 164 -76 164c-50 46 -105 68 -164 68h-16c-178 0 -298 -168 -360 -504c-8 -59 -12 -117 -12 -172v-64c14 -293 92 -472 236 -536c22 -10 51 -16 88 -16h16c115 0 172 84 172 252c-2 96 -5 144 -8 144c-45 8 -75 12 -88 12v8h452v-8
c-9 0 -49 -5 -120 -16v-376h-8c-12 59 -25 88 -40 88s-59 -24 -132 -72c-104 -66 -200 -100 -288 -100h-24c-169 0 -305 88 -408 264c-64 119 -96 251 -96 396v36c0 250 87 454 260 612c100 75 203 112 308 112h8c81 0 165 -21 252 -64c22 0 38 27 48 80v4z" />
    <glyph glyph-name="H" unicode="H" horiz-adv-x="1404" 
d="M160 1429h488v-8h-4l-120 -16v-656h516v656l-124 16v8h488v-8h-4c-71 -10 -111 -16 -120 -16v-1372c60 -10 96 -16 108 -16v-8h-456v8h4c9 0 43 6 104 16v652h-516v-652c60 -10 96 -16 108 -16v-8h-456v8h4c9 0 43 6 104 16v1372h-4l-120 16v8z" />
    <glyph glyph-name="I" unicode="I" horiz-adv-x="652" 
d="M160 1429h492v-8h-4c-83 -9 -124 -17 -124 -24v-1364c59 -10 97 -16 112 -16v-8h-460v8h4c10 0 45 6 104 16v1372h-4c-71 11 -111 16 -120 16v8z" />
    <glyph glyph-name="J" unicode="J" horiz-adv-x="1148" 
d="M660 1429h488v-8h-4c-71 -10 -111 -16 -120 -16v-884c0 -221 -107 -381 -320 -480c-62 -21 -115 -32 -160 -32h-28c-166 0 -278 91 -336 272c-13 44 -20 72 -20 84c0 54 31 93 92 116c10 3 21 4 32 4c54 0 91 -30 112 -92c3 -3 4 -12 4 -28c0 -57 -31 -96 -92 -116
c-13 0 -20 -2 -20 -8c64 -112 136 -168 216 -168h16c3 0 4 -1 4 -4c111 0 193 86 248 256c8 48 12 91 12 128v952l-124 16v8z" />
    <glyph glyph-name="K" unicode="K" horiz-adv-x="1372" 
d="M160 1429h488v-8h-4c-71 -10 -111 -16 -120 -16v-680c148 145 366 371 656 680c-32 11 -51 16 -56 16v8h220v-8c-67 -16 -100 -32 -100 -48c-360 -369 -540 -557 -540 -564l564 -780c32 -8 67 -13 104 -16v-8h-492v8h4l136 20v4c-299 406 -451 614 -456 624h-4
c-18 -13 -30 -26 -36 -40v-588c60 -10 96 -16 108 -16v-8h-456v8h4c9 0 43 6 104 16v1372h-4l-120 16v8z" />
    <glyph glyph-name="L" unicode="L" 
d="M160 1429h488v-8h-4l-120 -16v-1336h504c127 0 199 31 216 92c19 29 28 64 28 104h8v-248c0 -5 -3 -8 -8 -8h-1100v8h4c12 0 48 6 108 16v1364c0 7 -41 15 -124 24v8z" />
    <glyph glyph-name="M" unicode="M" horiz-adv-x="1596" 
d="M160 1429h312c10 -7 59 -135 148 -384c5 -7 88 -224 248 -652h4l352 1012h-4c-66 11 -103 16 -112 16v8h488v-8h-4c-71 -10 -111 -16 -120 -16v-1372c60 -10 96 -16 108 -16v-8h-456v8h4c9 0 43 6 104 16v1208h-4c-272 -788 -416 -1199 -432 -1232h-56
c0 6 -145 420 -436 1240h-4v-1204c0 -5 24 -15 72 -28v-8h-204v8c17 0 41 10 72 28v1352l-80 24v8z" />
    <glyph glyph-name="N" unicode="N" horiz-adv-x="1312" 
d="M160 1429h324c21 -29 249 -461 684 -1296h4v1264l-76 24v8h216v-8l-76 -24v-1360c5 0 28 -6 68 -20v-8h-304c-11 10 -243 448 -696 1316h-4v-1280c0 -6 24 -15 72 -28v-8h-204v8c48 13 72 22 72 28v1352l-80 24v8z" />
    <glyph glyph-name="O" unicode="O" horiz-adv-x="1212" 
d="M684 1429c238 0 403 -148 496 -444c21 -94 32 -179 32 -256c0 -228 -63 -417 -188 -568c-98 -101 -206 -152 -324 -152h-20c-223 0 -382 134 -476 400c-29 91 -44 184 -44 280v56c0 185 56 355 168 508c102 118 221 176 356 176zM400 713v-48c0 -242 52 -422 156 -540
c45 -37 88 -56 128 -56c142 0 234 148 276 444c5 33 9 93 12 180c0 240 -45 433 -136 580c-46 62 -96 92 -152 92c-134 0 -226 -162 -276 -488c-5 -67 -8 -122 -8 -164z" />
    <glyph glyph-name="P" unicode="P" horiz-adv-x="1228" 
d="M160 1429h668c182 0 303 -76 364 -228c24 -51 36 -105 36 -160c0 -145 -67 -261 -200 -348c-45 -26 -115 -40 -212 -40h-292v-620c57 -10 93 -16 108 -16v-8h-460v8h4c12 0 48 6 108 16v1364c0 7 -41 15 -124 24v8zM524 1361v-640h240c123 0 202 86 236 256
c3 28 4 49 4 64c0 159 -61 263 -184 312c-20 6 -39 8 -56 8h-240z" />
    <glyph glyph-name="Q" unicode="Q" horiz-adv-x="1604" 
d="M800 1429c237 0 401 -141 492 -424c27 -87 40 -182 40 -284c0 -220 -63 -406 -188 -560c-35 -34 -55 -52 -60 -52c203 -122 355 -187 456 -196h12c16 0 32 6 48 16h4c-31 -45 -77 -68 -140 -68h-8c-112 0 -272 60 -480 180c-55 -21 -108 -32 -160 -32h-16
c-220 0 -377 130 -472 388c0 22 -48 42 -144 60h-24v8c32 8 60 12 84 12c34 -2 54 -4 60 -4c-16 85 -24 151 -24 196v76c0 210 68 393 204 548c95 91 200 136 316 136zM520 721v-32c0 -120 11 -220 32 -300c130 -60 270 -134 420 -220c80 132 120 304 120 516
c0 245 -45 441 -136 588c-44 62 -96 92 -156 92c-124 0 -212 -148 -264 -444c-11 -66 -16 -133 -16 -200zM588 265c56 -130 128 -196 216 -196c26 4 52 10 80 20v4c-30 14 -127 72 -292 172h-4z" />
    <glyph glyph-name="R" unicode="R" horiz-adv-x="1340" 
d="M160 1429h668c143 0 247 -44 312 -132c61 -78 92 -163 92 -256c0 -139 -63 -253 -188 -340c-50 -29 -101 -44 -152 -44h-8v-8c201 -371 313 -577 336 -616c71 -10 111 -16 120 -16v-8h-460v8l100 12c-198 378 -308 586 -332 624h-120v-620c55 -10 91 -16 108 -16v-8h-460
v8c17 0 53 6 108 16v1372h-4c-69 11 -109 16 -120 16v8zM528 1361v-640h228c133 0 216 87 248 260c3 34 4 54 4 60c0 153 -60 257 -180 312c-25 6 -45 8 -60 8h-240z" />
    <glyph glyph-name="S" unicode="S" horiz-adv-x="1048" 
d="M568 1429c191 0 340 -89 448 -268l20 84h8v-316h-8v12c0 96 -60 206 -180 332c-96 72 -194 108 -292 108c-149 0 -250 -58 -304 -176c0 -18 -1 -28 -4 -28c0 -125 133 -233 400 -324c179 -75 282 -142 308 -200c56 -67 84 -155 84 -264v-32c0 -165 -97 -278 -292 -340
c-38 -5 -65 -8 -80 -8h-60c-138 0 -260 63 -368 188l-52 80l-20 -84h-8v308h8v-8c0 -90 56 -197 168 -320c97 -77 193 -116 288 -116h32c120 0 212 48 276 144c8 24 12 40 12 48v36c0 83 -91 166 -272 248c-205 72 -339 142 -404 208c-75 85 -112 182 -112 292v24
c0 6 -1 12 -4 16c0 119 59 219 176 300c75 38 153 56 232 56z" />
    <glyph glyph-name="T" unicode="T" horiz-adv-x="1156" 
d="M168 1429h980c5 0 8 -3 8 -8v-264h-8v12c0 100 -47 164 -140 192c-23 3 -41 4 -56 4h-176v-1332c60 -10 96 -16 108 -16v-8h-456v8h4c9 0 43 6 104 16v1332h-176c-98 0 -161 -45 -188 -136l-4 -40v-4h-8v236c1 6 4 8 8 8z" />
    <glyph glyph-name="U" unicode="U" horiz-adv-x="1332" 
d="M160 1429h492v-8l-124 -16v-496c0 -114 -1 -255 -4 -424c0 -280 103 -420 308 -420h24c203 0 304 136 304 408v936c-3 0 -19 4 -48 12v8h220v-8c-3 0 -19 -4 -48 -12v-844c0 -192 -43 -327 -128 -404c-99 -101 -221 -152 -364 -152h-16c-195 0 -343 90 -444 268
c-29 74 -44 140 -44 200v920c0 7 -43 15 -128 24v8z" />
    <glyph glyph-name="V" unicode="V" horiz-adv-x="1332" 
d="M160 1429h492v-8c-77 -8 -116 -14 -116 -20c208 -582 315 -874 320 -876c13 47 113 342 300 884c-24 8 -39 12 -44 12v8h220v-8c-43 -7 -64 -19 -64 -36l-464 -1372h-4c-5 2 -49 122 -132 360c-237 655 -363 998 -376 1028c-70 14 -114 20 -132 20v8z" />
    <glyph glyph-name="W" unicode="W" horiz-adv-x="2192" 
d="M160 1429h492v-8c-11 0 -50 -5 -116 -16c208 -586 315 -880 320 -880c201 603 305 904 312 904h212c7 0 76 -189 208 -568c5 -5 46 -117 124 -336h4c0 8 100 302 300 884c-24 8 -39 12 -44 12v8h220v-8c-42 0 -66 -21 -72 -64l-456 -1344h-4c-5 0 -49 122 -132 364
c-37 92 -140 376 -308 852h-4l-412 -1216h-4c-5 0 -28 62 -68 184c-283 780 -429 1182 -440 1204c-70 14 -114 20 -132 20v8z" />
    <glyph glyph-name="X" unicode="X" horiz-adv-x="1360" 
d="M160 1429h488v-8h-4l-92 -12v-4l252 -500h4c4 2 107 171 308 508c-2 0 -11 3 -28 8v8h216v-8c-31 0 -55 -17 -72 -52c-223 -371 -343 -569 -360 -592l384 -744c55 -10 89 -16 104 -16v-8h-456v8h4c8 0 35 4 80 12l-256 500h-4c-5 -2 -108 -172 -308 -508
c14 -2 22 -4 24 -4v-8h-204v8c31 0 53 20 68 60c235 380 352 576 352 588c-240 473 -368 720 -384 740c-68 11 -106 16 -116 16v8z" />
    <glyph glyph-name="Y" unicode="Y" horiz-adv-x="1304" 
d="M160 1429h488v-8h-4l-92 -12v-4c163 -418 248 -630 256 -636l308 644h-4c-11 6 -19 8 -24 8v8h216v-8c-43 -6 -64 -24 -64 -52c-239 -489 -369 -760 -388 -812v-524c60 -10 96 -16 108 -16v-8h-456v8h4c9 0 43 6 104 16v552c-216 543 -328 816 -336 820
c-68 11 -106 16 -116 16v8z" />
    <glyph glyph-name="Z" unicode="Z" horiz-adv-x="1160" 
d="M168 1429h984l8 -4l-712 -1324c176 -8 296 -12 360 -12h40c152 0 248 51 288 152c11 30 16 51 16 64h8v-288c0 -5 -3 -8 -8 -8h-988c0 8 237 452 712 1332h-20c-22 0 -133 3 -332 8h-44c-158 0 -257 -53 -296 -160c-11 -30 -16 -52 -16 -68h-8v300c1 6 4 8 8 8z" />
    <glyph glyph-name="a" unicode="a" horiz-adv-x="1360" 
d="M840 1429c9 0 33 -81 72 -244l312 -1152c78 -13 123 -20 136 -20v-8h-492v8h4l112 16c-77 282 -119 438 -124 468h-436l-120 -460c35 -13 56 -20 64 -20v-8h-208v8c56 13 84 26 84 40c245 914 368 1371 368 1372h228zM640 1301c-125 -468 -191 -716 -196 -744h396
l-196 744h-4z" />
    <glyph glyph-name="b" unicode="b" 
d="M160 1429h668c161 0 275 -56 340 -168c40 -62 60 -131 60 -208c0 -137 -64 -245 -192 -324v-4c86 -29 153 -87 200 -172c29 -55 44 -111 44 -168v-12c0 -133 -65 -240 -196 -320c-55 -29 -110 -44 -164 -44h-744v8h4c9 0 43 6 104 16v1372l-124 16v8zM524 1365v-616h236
c105 0 180 60 224 180c13 35 20 75 20 120v12c0 140 -55 236 -164 288c-25 11 -55 16 -92 16h-224zM524 685v-616h196c137 0 224 34 260 100c43 58 64 123 64 196v24c0 140 -63 236 -188 288c-25 6 -45 8 -60 8h-272z" />
    <glyph glyph-name="c" unicode="c" horiz-adv-x="1044" 
d="M692 1429c96 0 193 -29 292 -88h16c12 0 24 27 36 80h8v-312h-8c-17 89 -43 148 -76 176c-68 54 -134 80 -200 80c-170 0 -283 -161 -340 -484c-8 -47 -12 -97 -12 -152v-76c0 -198 51 -362 152 -492c60 -58 119 -88 176 -88h16c3 0 4 -1 4 -4l8 4h12
c86 0 161 44 224 132c16 37 28 77 36 120h8v-312h-8c-10 56 -24 84 -44 84l-124 -60c-61 -18 -113 -28 -156 -28h-20c-233 0 -397 142 -492 424c-27 86 -40 176 -40 272v24c0 215 64 397 192 548c102 102 215 152 340 152z" />
    <glyph glyph-name="d" unicode="d" 
d="M160 1429h292c322 0 545 -85 668 -256c107 -130 160 -289 160 -476c0 -331 -157 -548 -472 -652c-85 -26 -217 -40 -396 -40c-19 3 -43 4 -72 4h-164v8h4c9 0 43 6 104 16v1372h-4l-120 16v8zM524 1365v-1296h4c255 0 423 140 504 420c19 76 28 152 28 228
c0 241 -79 431 -236 568c-80 54 -158 80 -232 80h-68z" />
    <glyph glyph-name="e" unicode="e" horiz-adv-x="1288" 
d="M160 1429h1120c5 0 8 -3 8 -8v-244h-8v4c0 92 -47 152 -140 180c-23 3 -43 4 -60 4h-548v-556h424c48 0 76 42 84 124v12h8v-336h-8v12c0 72 -28 113 -84 124h-424v-676h504c120 0 192 28 216 84c19 43 28 77 28 104h8v-240c0 -5 -3 -8 -8 -8h-1104v8h4l112 16v1368
c-74 14 -118 20 -132 20v8z" />
    <glyph glyph-name="f" unicode="f" horiz-adv-x="1288" 
d="M160 1429h1120c5 0 8 -3 8 -8v-244h-8v4c0 89 -45 149 -136 180c-27 3 -49 4 -64 4h-548v-556h424c48 0 76 42 84 124v16h8v-340h-8v12c0 72 -28 113 -84 124h-424v-712c68 -10 106 -16 116 -16v-8h-472v8h4l112 16v1368c-74 14 -118 20 -132 20v8z" />
    <glyph glyph-name="g" unicode="g" horiz-adv-x="1276" 
d="M1036 1449h8v-312h-8c-25 110 -50 164 -76 164c-50 46 -105 68 -164 68h-16c-178 0 -298 -168 -360 -504c-8 -59 -12 -117 -12 -172v-64c14 -293 92 -472 236 -536c22 -10 51 -16 88 -16h16c115 0 172 84 172 252c-2 96 -5 144 -8 144c-45 8 -75 12 -88 12v8h452v-8
c-9 0 -49 -5 -120 -16v-376h-8c-12 59 -25 88 -40 88s-59 -24 -132 -72c-104 -66 -200 -100 -288 -100h-24c-169 0 -305 88 -408 264c-64 119 -96 251 -96 396v36c0 250 87 454 260 612c100 75 203 112 308 112h8c81 0 165 -21 252 -64c22 0 38 27 48 80v4z" />
    <glyph glyph-name="h" unicode="h" horiz-adv-x="1404" 
d="M160 1429h488v-8h-4l-120 -16v-656h516v656l-124 16v8h488v-8h-4c-71 -10 -111 -16 -120 -16v-1372c60 -10 96 -16 108 -16v-8h-456v8h4c9 0 43 6 104 16v652h-516v-652c60 -10 96 -16 108 -16v-8h-456v8h4c9 0 43 6 104 16v1372h-4l-120 16v8z" />
    <glyph glyph-name="i" unicode="i" horiz-adv-x="652" 
d="M160 1429h492v-8h-4c-83 -9 -124 -17 -124 -24v-1364c59 -10 97 -16 112 -16v-8h-460v8h4c10 0 45 6 104 16v1372h-4c-71 11 -111 16 -120 16v8z" />
    <glyph glyph-name="j" unicode="j" horiz-adv-x="1148" 
d="M660 1429h488v-8h-4c-71 -10 -111 -16 -120 -16v-884c0 -221 -107 -381 -320 -480c-62 -21 -115 -32 -160 -32h-28c-166 0 -278 91 -336 272c-13 44 -20 72 -20 84c0 54 31 93 92 116c10 3 21 4 32 4c54 0 91 -30 112 -92c3 -3 4 -12 4 -28c0 -57 -31 -96 -92 -116
c-13 0 -20 -2 -20 -8c64 -112 136 -168 216 -168h16c3 0 4 -1 4 -4c111 0 193 86 248 256c8 48 12 91 12 128v952l-124 16v8z" />
    <glyph glyph-name="k" unicode="k" horiz-adv-x="1372" 
d="M160 1429h488v-8h-4c-71 -10 -111 -16 -120 -16v-680c148 145 366 371 656 680c-32 11 -51 16 -56 16v8h220v-8c-67 -16 -100 -32 -100 -48c-360 -369 -540 -557 -540 -564l564 -780c32 -8 67 -13 104 -16v-8h-492v8h4l136 20v4c-299 406 -451 614 -456 624h-4
c-18 -13 -30 -26 -36 -40v-588c60 -10 96 -16 108 -16v-8h-456v8h4c9 0 43 6 104 16v1372h-4l-120 16v8z" />
    <glyph glyph-name="l" unicode="l" 
d="M160 1429h488v-8h-4l-120 -16v-1336h504c127 0 199 31 216 92c19 29 28 64 28 104h8v-248c0 -5 -3 -8 -8 -8h-1100v8h4c12 0 48 6 108 16v1364c0 7 -41 15 -124 24v8z" />
    <glyph glyph-name="m" unicode="m" horiz-adv-x="1596" 
d="M160 1429h312c10 -7 59 -135 148 -384c5 -7 88 -224 248 -652h4l352 1012h-4c-66 11 -103 16 -112 16v8h488v-8h-4c-71 -10 -111 -16 -120 -16v-1372c60 -10 96 -16 108 -16v-8h-456v8h4c9 0 43 6 104 16v1208h-4c-272 -788 -416 -1199 -432 -1232h-56
c0 6 -145 420 -436 1240h-4v-1204c0 -5 24 -15 72 -28v-8h-204v8c17 0 41 10 72 28v1352l-80 24v8z" />
    <glyph glyph-name="n" unicode="n" horiz-adv-x="1312" 
d="M160 1429h324c21 -29 249 -461 684 -1296h4v1264l-76 24v8h216v-8l-76 -24v-1360c5 0 28 -6 68 -20v-8h-304c-11 10 -243 448 -696 1316h-4v-1280c0 -6 24 -15 72 -28v-8h-204v8c48 13 72 22 72 28v1352l-80 24v8z" />
    <glyph glyph-name="o" unicode="o" horiz-adv-x="1212" 
d="M684 1429c238 0 403 -148 496 -444c21 -94 32 -179 32 -256c0 -228 -63 -417 -188 -568c-98 -101 -206 -152 -324 -152h-20c-223 0 -382 134 -476 400c-29 91 -44 184 -44 280v56c0 185 56 355 168 508c102 118 221 176 356 176zM400 713v-48c0 -242 52 -422 156 -540
c45 -37 88 -56 128 -56c142 0 234 148 276 444c5 33 9 93 12 180c0 240 -45 433 -136 580c-46 62 -96 92 -152 92c-134 0 -226 -162 -276 -488c-5 -67 -8 -122 -8 -164z" />
    <glyph glyph-name="p" unicode="p" horiz-adv-x="1228" 
d="M160 1429h668c182 0 303 -76 364 -228c24 -51 36 -105 36 -160c0 -145 -67 -261 -200 -348c-45 -26 -115 -40 -212 -40h-292v-620c57 -10 93 -16 108 -16v-8h-460v8h4c12 0 48 6 108 16v1364c0 7 -41 15 -124 24v8zM524 1361v-640h240c123 0 202 86 236 256
c3 28 4 49 4 64c0 159 -61 263 -184 312c-20 6 -39 8 -56 8h-240z" />
    <glyph glyph-name="q" unicode="q" horiz-adv-x="1604" 
d="M800 1429c237 0 401 -141 492 -424c27 -87 40 -182 40 -284c0 -220 -63 -406 -188 -560c-35 -34 -55 -52 -60 -52c203 -122 355 -187 456 -196h12c16 0 32 6 48 16h4c-31 -45 -77 -68 -140 -68h-8c-112 0 -272 60 -480 180c-55 -21 -108 -32 -160 -32h-16
c-220 0 -377 130 -472 388c0 22 -48 42 -144 60h-24v8c32 8 60 12 84 12c34 -2 54 -4 60 -4c-16 85 -24 151 -24 196v76c0 210 68 393 204 548c95 91 200 136 316 136zM520 721v-32c0 -120 11 -220 32 -300c130 -60 270 -134 420 -220c80 132 120 304 120 516
c0 245 -45 441 -136 588c-44 62 -96 92 -156 92c-124 0 -212 -148 -264 -444c-11 -66 -16 -133 -16 -200zM588 265c56 -130 128 -196 216 -196c26 4 52 10 80 20v4c-30 14 -127 72 -292 172h-4z" />
    <glyph glyph-name="r" unicode="r" horiz-adv-x="1340" 
d="M160 1429h668c143 0 247 -44 312 -132c61 -78 92 -163 92 -256c0 -139 -63 -253 -188 -340c-50 -29 -101 -44 -152 -44h-8v-8c201 -371 313 -577 336 -616c71 -10 111 -16 120 -16v-8h-460v8l100 12c-198 378 -308 586 -332 624h-120v-620c55 -10 91 -16 108 -16v-8h-460
v8c17 0 53 6 108 16v1372h-4c-69 11 -109 16 -120 16v8zM528 1361v-640h228c133 0 216 87 248 260c3 34 4 54 4 60c0 153 -60 257 -180 312c-25 6 -45 8 -60 8h-240z" />
    <glyph glyph-name="s" unicode="s" horiz-adv-x="1048" 
d="M568 1429c191 0 340 -89 448 -268l20 84h8v-316h-8v12c0 96 -60 206 -180 332c-96 72 -194 108 -292 108c-149 0 -250 -58 -304 -176c0 -18 -1 -28 -4 -28c0 -125 133 -233 400 -324c179 -75 282 -142 308 -200c56 -67 84 -155 84 -264v-32c0 -165 -97 -278 -292 -340
c-38 -5 -65 -8 -80 -8h-60c-138 0 -260 63 -368 188l-52 80l-20 -84h-8v308h8v-8c0 -90 56 -197 168 -320c97 -77 193 -116 288 -116h32c120 0 212 48 276 144c8 24 12 40 12 48v36c0 83 -91 166 -272 248c-205 72 -339 142 -404 208c-75 85 -112 182 -112 292v24
c0 6 -1 12 -4 16c0 119 59 219 176 300c75 38 153 56 232 56z" />
    <glyph glyph-name="t" unicode="t" horiz-adv-x="1156" 
d="M168 1429h980c5 0 8 -3 8 -8v-264h-8v12c0 100 -47 164 -140 192c-23 3 -41 4 -56 4h-176v-1332c60 -10 96 -16 108 -16v-8h-456v8h4c9 0 43 6 104 16v1332h-176c-98 0 -161 -45 -188 -136l-4 -40v-4h-8v236c1 6 4 8 8 8z" />
    <glyph glyph-name="u" unicode="u" horiz-adv-x="1332" 
d="M160 1429h492v-8l-124 -16v-496c0 -114 -1 -255 -4 -424c0 -280 103 -420 308 -420h24c203 0 304 136 304 408v936c-3 0 -19 4 -48 12v8h220v-8c-3 0 -19 -4 -48 -12v-844c0 -192 -43 -327 -128 -404c-99 -101 -221 -152 -364 -152h-16c-195 0 -343 90 -444 268
c-29 74 -44 140 -44 200v920c0 7 -43 15 -128 24v8z" />
    <glyph glyph-name="v" unicode="v" horiz-adv-x="1332" 
d="M160 1429h492v-8c-77 -8 -116 -14 -116 -20c208 -582 315 -874 320 -876c13 47 113 342 300 884c-24 8 -39 12 -44 12v8h220v-8c-43 -7 -64 -19 -64 -36l-464 -1372h-4c-5 2 -49 122 -132 360c-237 655 -363 998 -376 1028c-70 14 -114 20 -132 20v8z" />
    <glyph glyph-name="w" unicode="w" horiz-adv-x="2192" 
d="M160 1429h492v-8c-11 0 -50 -5 -116 -16c208 -586 315 -880 320 -880c201 603 305 904 312 904h212c7 0 76 -189 208 -568c5 -5 46 -117 124 -336h4c0 8 100 302 300 884c-24 8 -39 12 -44 12v8h220v-8c-42 0 -66 -21 -72 -64l-456 -1344h-4c-5 0 -49 122 -132 364
c-37 92 -140 376 -308 852h-4l-412 -1216h-4c-5 0 -28 62 -68 184c-283 780 -429 1182 -440 1204c-70 14 -114 20 -132 20v8z" />
    <glyph glyph-name="x" unicode="x" horiz-adv-x="1360" 
d="M160 1429h488v-8h-4l-92 -12v-4l252 -500h4c4 2 107 171 308 508c-2 0 -11 3 -28 8v8h216v-8c-31 0 -55 -17 -72 -52c-223 -371 -343 -569 -360 -592l384 -744c55 -10 89 -16 104 -16v-8h-456v8h4c8 0 35 4 80 12l-256 500h-4c-5 -2 -108 -172 -308 -508
c14 -2 22 -4 24 -4v-8h-204v8c31 0 53 20 68 60c235 380 352 576 352 588c-240 473 -368 720 -384 740c-68 11 -106 16 -116 16v8z" />
    <glyph glyph-name="y" unicode="y" horiz-adv-x="1304" 
d="M160 1429h488v-8h-4l-92 -12v-4c163 -418 248 -630 256 -636l308 644h-4c-11 6 -19 8 -24 8v8h216v-8c-43 -6 -64 -24 -64 -52c-239 -489 -369 -760 -388 -812v-524c60 -10 96 -16 108 -16v-8h-456v8h4c9 0 43 6 104 16v552c-216 543 -328 816 -336 820
c-68 11 -106 16 -116 16v8z" />
    <glyph glyph-name="z" unicode="z" horiz-adv-x="1160" 
d="M168 1429h984l8 -4l-712 -1324c176 -8 296 -12 360 -12h40c152 0 248 51 288 152c11 30 16 51 16 64h8v-288c0 -5 -3 -8 -8 -8h-988c0 8 237 452 712 1332h-20c-22 0 -133 3 -332 8h-44c-158 0 -257 -53 -296 -160c-11 -30 -16 -52 -16 -68h-8v300c1 6 4 8 8 8z" />
    <glyph glyph-name="A.salt" unicode="&#xe001;" horiz-adv-x="1398" 
d="M771 1421c9 0 40 -108 92 -324l136 -496c529 155 846 232 952 232c76 14 157 20 244 20h12c289 0 522 -76 700 -228h-4c-178 131 -385 196 -620 196c-271 0 -692 -100 -1264 -300c80 -300 126 -466 136 -496c54 -10 98 -17 132 -20v-8h-484v8h4c70 8 104 15 104 20
c-72 280 -112 425 -120 436c-128 -29 -240 -44 -336 -44c-26 0 -64 4 -116 12c-66 -252 -102 -386 -108 -400c36 -13 57 -20 64 -20v-8h-204v8c54 12 80 23 80 32c54 190 90 325 108 404c-100 36 -180 106 -240 212l-40 100h8c7 -38 42 -93 104 -164c64 -48 127 -78 188 -88
c3 22 84 327 244 916h228zM359 497l40 -4c114 0 239 16 376 48c-125 460 -192 710 -200 748c-6 0 -41 -125 -104 -376c-18 -58 -56 -197 -112 -416z" />
    <glyph glyph-name="E.salt" unicode="&#xe002;" horiz-adv-x="1300" 
d="M-183 1421h1112c6 0 8 -3 8 -8v-248h-8c0 107 -52 171 -156 192h-592v-624c29 0 317 78 864 232c255 64 464 96 628 96h32c285 0 520 -80 704 -240h-4c-179 139 -391 208 -636 208c-254 0 -631 -85 -1132 -256c-182 -58 -334 -100 -456 -124v-588h520
c102 0 168 26 196 76c22 46 32 84 32 116h8v-244c0 -5 -2 -8 -8 -8h-1100v8h4l108 16v600c-221 0 -370 108 -448 324v4c26 -47 54 -91 84 -132c79 -80 195 -120 348 -120h16v696l-124 16v8z" />
    <glyph glyph-name="F.salt" unicode="&#xe003;" horiz-adv-x="1296" 
d="M-1722 1421h1112c6 0 8 -3 8 -8v-244h-8v4c0 84 -40 142 -120 176c-21 6 -44 8 -68 8h-560v-408c74 11 151 16 232 16h36c234 0 406 -92 516 -276v-4c-94 136 -269 204 -524 204c-64 0 -150 -6 -260 -20v-844c63 -10 101 -16 112 -16v-8h-464v8h4l108 16v804h-4
c-390 -80 -716 -141 -980 -184c-153 -18 -277 -28 -372 -28c-289 0 -511 59 -668 176h8c169 -106 376 -160 620 -160c257 0 677 80 1260 240c78 19 123 28 136 28v496h-4l-120 16v8zM-3634 801h8v-4h-8v4zM-570 681h4v-8h-4v8z" />
    <glyph glyph-name="L.salt" unicode="&#xe004;" horiz-adv-x="1203" 
d="M256 1421h472v-8h-4l-112 -16v-1312c101 0 532 54 1292 160c337 46 645 68 924 68c748 0 1235 -216 1460 -648c20 -39 44 -99 72 -180h-8c-90 266 -265 468 -524 604c-231 110 -501 164 -812 164h-108c-324 0 -922 -81 -1792 -244c-250 -37 -448 -56 -592 -56
c-254 0 -415 64 -484 192c-24 52 -36 96 -36 132h8c0 -70 61 -127 184 -172c81 -16 140 -24 176 -24v1316c-66 11 -105 16 -116 16v8zM0 309h8v-12h-8v12z" />
    <glyph glyph-name="M.salt" unicode="&#xe005;" horiz-adv-x="1595" 
d="M-628 1516h76c155 0 292 -43 412 -128c113 -74 201 -227 264 -460c27 -121 57 -336 92 -644c11 -46 25 -97 44 -152h4c29 92 176 513 440 1264c-54 10 -89 16 -104 16v8h464v-8h-4c-8 0 -44 -6 -108 -16v-1372c60 -11 96 -16 108 -16v-8h-460v8c13 0 51 5 112 16v1212h-4
c-13 -47 -149 -438 -408 -1172c37 -40 81 -60 132 -60v-8c-40 -8 -73 -12 -100 -12h-36c-132 0 -219 121 -260 364c-37 272 -67 470 -88 592c-30 120 -71 224 -124 312c-27 33 -40 51 -40 56h-4v-1272c0 -7 24 -16 72 -28v-8h-204v8c48 12 72 22 72 28v1328
c-96 88 -227 132 -392 132h-44c-47 0 -101 -4 -160 -12v8c107 16 190 24 248 24z" />
    <glyph glyph-name="N.salt" unicode="&#xe006;" horiz-adv-x="1299" 
d="M-3329 1409h324c8 0 76 -128 204 -384c6 0 166 -304 480 -912h4v1264l-76 24v8h216v-8c-45 -16 -70 -24 -76 -24v-1360l76 -24v-8h-308c-17 19 -82 140 -196 364c-317 597 -484 914 -500 952h-4v-1104c0 -205 -34 -342 -104 -412c-125 -190 -479 -284 -1060 -284
c-419 5 -697 8 -836 8h-36c-738 0 -1218 -134 -1440 -400c-75 -81 -131 -170 -168 -268h-4v8c95 251 252 437 472 556c249 141 622 212 1120 212l1076 -28h48c441 0 710 92 808 276c40 64 60 156 60 276v1236l-80 24v8z" />
    <glyph glyph-name="O.salt" unicode="&#xe007;" horiz-adv-x="1306" 
d="M-1942 1416h56c152 0 283 -85 392 -256c69 -134 104 -272 104 -416v-56c0 -227 -73 -418 -220 -572c-93 -77 -186 -116 -280 -116h-52c-162 0 -298 93 -408 280c-29 63 -55 140 -76 232c-96 -27 -197 -40 -304 -40c-257 0 -654 71 -1192 212c-298 67 -534 100 -708 100
h-8c-197 0 -361 -39 -492 -116h-8c148 109 328 164 540 164h40c6 0 11 1 16 4c5 -3 10 -4 16 -4h20c177 0 586 -67 1228 -200c242 -37 422 -56 540 -56c93 0 193 13 300 40c-3 27 -4 47 -4 60c0 298 88 517 264 656c79 56 157 84 236 84zM-2198 732v-4
c102 67 191 161 268 280c83 157 124 258 124 304c-39 29 -75 44 -108 44c-130 0 -219 -147 -268 -440c-11 -46 -16 -107 -16 -184zM-1802 1300c0 -46 -37 -160 -112 -340c-32 -77 -96 -166 -192 -268c-10 -10 -41 -35 -92 -76c0 -209 51 -376 152 -500
c45 -37 88 -56 128 -56c131 0 220 124 268 372c13 70 20 144 20 220v56c0 252 -53 448 -160 588l-8 4h-4z" />
    <glyph glyph-name="Q.salt" unicode="&#xe008;" horiz-adv-x="1307" 
d="M639 1421c244 0 409 -149 496 -448c22 -76 32 -163 32 -260c0 -258 -81 -464 -244 -616v-4c313 -192 575 -335 788 -428c510 -224 1023 -336 1540 -336s1028 142 1532 424h4c-498 -306 -1032 -460 -1604 -460h-68c-616 0 -1286 190 -2008 568c-194 110 -293 167 -296 172
c-51 -21 -100 -32 -148 -32h-40c-200 0 -350 122 -452 364c0 36 -29 58 -88 68c-17 11 -39 16 -64 16h-20v8c27 8 53 12 80 12c34 -2 54 -4 60 -4v4c-16 88 -24 158 -24 208v40c0 233 71 425 212 576c91 86 195 128 312 128zM355 681c0 -110 11 -210 32 -300
c128 -59 268 -132 420 -220c80 123 120 301 120 536c0 228 -44 416 -132 564c-49 64 -95 96 -140 96h-20c-129 0 -218 -158 -268 -476c-8 -63 -12 -130 -12 -200zM423 257c56 -130 129 -196 220 -196c51 8 76 16 76 24c-30 14 -127 72 -292 172h-4z" />
    <glyph glyph-name="R.salt" unicode="&#xe009;" horiz-adv-x="1226" 
d="M203 1421h708c141 0 248 -77 320 -232c22 -58 32 -110 32 -156c0 -140 -62 -254 -188 -340c-51 -29 -101 -44 -152 -44h-12c24 -127 50 -225 76 -296c122 -303 333 -532 632 -688c204 -93 403 -140 596 -140h32c279 0 532 87 760 260c336 282 504 684 504 1208h8
c0 -671 -257 -1147 -772 -1428c-204 -93 -407 -140 -608 -140c-385 0 -724 146 -1016 436c-168 188 -286 386 -352 596c-24 82 -41 144 -52 188h-160v-616c0 -6 35 -13 104 -20v-8h-452v8c17 0 53 6 108 16v1372l-116 16v8zM559 1357v-644h236c125 0 205 86 240 256
c3 32 4 54 4 68c0 153 -60 256 -180 308c-25 8 -66 12 -124 12h-176z" />
    <glyph glyph-name="S.salt" unicode="&#xe010;" horiz-adv-x="1041" 
d="M-2489 1421h36c162 0 296 -70 400 -212c22 -37 34 -56 36 -56l20 84h8v-308h-8v8c0 93 -58 201 -176 324c-88 75 -188 112 -300 112c-139 0 -238 -54 -296 -164l-4 -40v-16c0 -115 143 -222 428 -320c240 -92 360 -236 360 -432v-48c0 -166 -105 -282 -316 -348
c-49 -10 -95 -16 -136 -16h-44c-153 0 -448 74 -884 220c-308 94 -583 140 -824 140c-506 0 -954 -248 -1344 -744v4c421 568 892 852 1412 852h76c259 0 623 -88 1092 -264c224 -80 392 -120 504 -120c114 0 221 39 320 116c27 29 40 59 40 92c0 106 -146 209 -440 308
c-226 86 -340 235 -340 448v28c0 154 83 263 248 328c47 16 91 24 132 24zM-5861 1105h8v-28h-8v28zM-5537 -399v-4c0 -5 -2 -8 -8 -8v4c1 6 4 8 8 8zM-5553 -415h4v-8h-4v8zM-5565 -431h4v-8h-4v8z" />
    <glyph glyph-name="X.salt" unicode="&#xe011;" horiz-adv-x="1291" 
d="M-1299 1421h472v-8h-4l-88 -12c187 -363 294 -572 320 -628h8c68 132 137 305 208 520c22 60 32 97 32 112c-10 6 -20 8 -28 8v8h212v-8c-34 0 -57 -24 -68 -72c-102 -289 -199 -524 -292 -704c184 -359 289 -563 316 -612c49 -10 83 -16 100 -16v-8h-448v8h4
c48 5 72 10 72 16c-95 187 -158 311 -188 372h-4c-37 -73 -141 -197 -312 -372c-302 -261 -606 -392 -912 -392h-52c-232 0 -435 79 -608 236c-106 116 -160 237 -160 364v16c0 273 203 533 608 780c34 22 55 32 64 32c-424 -252 -636 -512 -636 -780
c0 -234 139 -404 416 -512c110 -32 207 -48 292 -48c374 0 723 182 1048 544c80 96 143 180 188 252c0 8 -140 284 -420 828c-13 38 -32 56 -56 56c-44 8 -72 12 -84 12v8zM-1895 1141c-2 -8 -10 -12 -24 -12c3 8 11 12 24 12zM-2003 1085c0 -7 -10 -12 -32 -16
c0 7 11 13 32 16z" />
    <glyph glyph-name="A.titl" unicode="&#xe012;" horiz-adv-x="1300" 
d="M568 1420h236c6 0 30 -85 72 -256l308 -1140c65 -11 103 -16 116 -16v-8h-448v8h4l88 12l-124 468h-436l-120 -460c36 -13 58 -20 64 -20v-8h-208v8c58 14 88 29 88 44c0 7 114 438 344 1292c-42 13 -72 20 -88 20c-55 0 -87 -59 -96 -176c0 -292 -22 -467 -64 -524
c-42 -67 -103 -100 -184 -100h-4c-30 0 -62 3 -96 8v8c26 -3 46 -4 60 -4h12c114 0 172 71 172 212c-11 188 -16 297 -16 328v12c0 141 54 232 164 272c40 13 92 20 156 20zM600 1296l-196 -748h400c-134 489 -200 738 -200 748h-4zM0 584h12v-8h-12v8z" />
    <glyph glyph-name="B.titl" unicode="&#xe013;" horiz-adv-x="1500" 
d="M519 1420h584c134 0 238 -72 312 -216c21 -46 32 -95 32 -148v-12c0 -137 -63 -244 -188 -320v-8c75 -25 138 -77 188 -156c35 -57 52 -116 52 -176v-28c0 -131 -69 -238 -208 -320c-54 -24 -107 -36 -160 -36h-740v8h4c12 0 48 5 108 16v1336c-3 0 -17 1 -40 4
c-49 0 -81 -51 -96 -152c0 -321 -23 -505 -68 -552c-39 -64 -99 -96 -180 -96h-16c-27 0 -62 4 -104 12v8c33 -5 62 -8 88 -8c117 0 176 73 176 220c-11 183 -16 291 -16 324v20c0 157 69 249 208 276c27 3 49 4 64 4zM743 1356v-616h180c126 0 209 36 248 108
c35 59 52 119 52 180v40c0 128 -55 220 -164 276c-28 8 -52 12 -72 12h-244zM743 680v-616h276c109 0 187 67 232 200c7 31 13 66 16 104c0 144 -61 244 -184 300c-37 8 -81 12 -132 12h-208z" />
    <glyph glyph-name="D.titl" unicode="&#xe014;" horiz-adv-x="1496" 
d="M511 1420h216c368 0 609 -153 724 -460c29 -88 44 -172 44 -252v-44c0 -17 -1 -44 -4 -80c3 0 4 -1 4 -4c-4 0 -13 -39 -28 -116c-57 -166 -150 -286 -280 -360c-123 -69 -273 -104 -452 -104h-348v8c13 0 51 5 112 16v1336c-2 0 -13 1 -32 4c-50 0 -82 -39 -96 -116
c-7 -94 -14 -230 -20 -408c-15 -94 -36 -160 -64 -196c-41 -53 -99 -80 -172 -80h-4c-30 0 -62 3 -96 8v8c31 -3 54 -4 68 -4c117 0 176 67 176 200v40l-16 304c0 200 89 300 268 300zM739 1352v-1288c12 0 20 -1 24 -4c205 0 356 108 452 324c40 98 60 204 60 320v4
c0 264 -89 462 -268 592c-73 40 -145 60 -216 60h-44c-5 -1 -8 -3 -8 -8zM-1 584h8v-8h-8v8z" />
    <glyph glyph-name="E.titl" unicode="&#xe015;" horiz-adv-x="1496" 
d="M519 1420h968c5 -1 8 -3 8 -8v-236h-8c-17 120 -73 180 -168 180h-580v-556h420c59 10 88 50 88 120v12h8v-324h-8v8c-7 80 -35 120 -84 120h-424v-672h580c95 0 151 60 168 180h8v-236c0 -5 -3 -8 -8 -8h-1108v8h4l116 16v1336l-28 4c-54 0 -86 -43 -96 -128
c-7 -62 -13 -194 -20 -396c-11 -77 -29 -138 -56 -184c-41 -61 -101 -92 -180 -92h-4c-30 0 -62 3 -96 8v8c31 -3 54 -4 68 -4c117 0 176 69 176 208v24l-16 316c0 197 91 296 272 296zM-1 584h12v-8h-12v8z" />
    <glyph glyph-name="F.titl" unicode="&#xe016;" horiz-adv-x="1492" 
d="M519 1420h964c5 -1 8 -3 8 -8v-256h-8v8c0 91 -40 153 -120 184c-20 5 -39 8 -56 8h-572v-556h408c67 0 100 45 100 136v20h8v-372h-8v8c0 96 -28 144 -84 144h-424v-712l116 -16v-8h-476v8h4l116 16v1336l-20 4c-57 0 -90 -41 -100 -124c-7 -66 -13 -200 -20 -400
c-11 -77 -29 -138 -56 -184c-41 -61 -101 -92 -180 -92h-4c-30 0 -62 3 -96 8v8c31 -3 54 -4 68 -4c117 0 176 69 176 208v24l-16 316c0 197 91 296 272 296zM-1 584h12v-8h-12v8z" />
    <glyph glyph-name="H.titl" unicode="&#xe017;" horiz-adv-x="1600" 
d="M511 1420h328v-8h-4c-9 0 -43 -5 -104 -16v-656h516v656c-65 11 -103 16 -112 16v8h464v-8h-4c-12 0 -48 -5 -108 -16v-1372c60 -11 97 -16 112 -16v-8h-464v8h4l108 16v656h-516v-656c60 -11 96 -16 108 -16v-8h-460v8h4c9 0 44 5 104 16v1332c0 5 -3 8 -8 8
c-75 0 -112 -63 -112 -188c-7 -295 -26 -459 -56 -492c-38 -80 -105 -120 -200 -120c-36 0 -73 4 -112 12v8c31 -5 58 -8 80 -8c123 0 184 75 184 224c-13 204 -20 314 -20 332c0 139 52 229 156 268c36 13 74 20 112 20z" />
    <glyph glyph-name="I.titl" unicode="&#xe018;" horiz-adv-x="852" 
d="M511 1420h340v-8h-4c-9 0 -43 -5 -104 -16v-1372c60 -11 96 -16 108 -16v-8h-460v8h4l108 16v1336l-36 4c-60 0 -93 -57 -100 -172c-7 -285 -21 -442 -40 -472c-38 -104 -107 -156 -208 -156h-8c-36 0 -73 4 -112 12v8c31 -5 58 -8 80 -8c123 0 184 72 184 216
c-11 163 -16 264 -16 304v28c0 6 -1 11 -4 16c0 80 24 150 72 208c51 48 116 72 196 72z" />
    <glyph glyph-name="J.titl" unicode="&#xe019;" horiz-adv-x="976" 
d="M639 1420h336v-8h-4c-8 0 -44 -5 -108 -16v-908c0 -179 -91 -324 -272 -436c-79 -35 -149 -52 -208 -52h-16c-156 0 -264 71 -324 212c-13 24 -28 70 -44 140c15 83 53 124 112 124h20c72 -18 108 -54 108 -108v-24c0 -49 -32 -83 -96 -104c-11 0 -16 -3 -16 -8
c65 -112 138 -168 220 -168h24c104 0 181 77 232 232c13 39 20 86 20 140v924c-2 0 -13 1 -32 4c-54 0 -86 -43 -96 -128c-7 -71 -14 -203 -20 -396c-13 -93 -36 -159 -68 -200c-39 -51 -95 -76 -168 -76h-4c-30 0 -62 3 -96 8v8c31 -3 54 -4 68 -4c117 0 176 67 176 200v32
l-16 308c0 203 91 304 272 304zM123 584h8v-8h-8v8z" />
    <glyph glyph-name="K.titl" unicode="&#xe020;" horiz-adv-x="1564" 
d="M512 1420h340v-8h-4c-8 0 -44 -5 -108 -16v-680c108 106 327 332 656 680c-26 11 -42 16 -48 16v8h204v-8c-53 -10 -93 -34 -120 -72c-315 -331 -486 -508 -512 -532c20 -31 208 -294 564 -788c38 -8 65 -12 80 -12v-8h-444v8h4l116 16c-299 408 -453 617 -464 628
c-4 0 -16 -12 -36 -36v-592c62 -11 100 -16 112 -16v-8h-464v8c13 0 50 5 112 16v1336c-19 3 -30 4 -32 4c-50 0 -82 -39 -96 -116c-14 -312 -24 -468 -32 -468c0 -37 -20 -86 -60 -148c-42 -45 -97 -68 -164 -68h-4c-36 0 -74 4 -112 12v8c31 -5 58 -8 80 -8
c120 0 180 65 180 196v44l-16 300c0 203 89 304 268 304z" />
    <glyph glyph-name="L.titl" unicode="&#xe021;" horiz-adv-x="1484" 
d="M511 1420h328v-8c-13 0 -50 -5 -112 -16v-1332h580c96 0 152 61 168 184h8v-240c0 -5 -3 -8 -8 -8h-1100v8h4c8 0 44 5 108 16v1332c0 5 -3 8 -8 8h-8c-58 0 -93 -52 -104 -156c-6 -322 -22 -490 -48 -504c-36 -93 -103 -140 -200 -140h-8c-36 0 -73 4 -112 12v8
c31 -5 58 -8 80 -8c123 0 184 71 184 212c-11 179 -16 285 -16 316v40c0 130 49 215 148 256c43 13 81 20 116 20z" />
    <glyph glyph-name="M.titl" unicode="&#xe022;" horiz-adv-x="1832" 
d="M511 1420h208c8 0 29 -52 64 -156c188 -489 298 -783 332 -884h4c16 53 133 392 352 1016c-32 8 -67 13 -104 16v8h464v-8h-4c-8 0 -44 -5 -108 -16v-1372c63 -11 100 -16 112 -16v-8h-464v8c13 0 51 5 112 16v1208h-4c-277 -805 -421 -1216 -432 -1232h-56
c0 8 -144 419 -432 1232h-4v-1204l72 -20v-8h-208v8c48 12 72 22 72 28v1320c0 5 -3 8 -8 8c-77 0 -116 -71 -116 -212c0 -277 -21 -441 -64 -492c-42 -64 -102 -96 -180 -96h-8c-36 0 -73 4 -112 12v8c31 -5 58 -8 80 -8c123 0 184 72 184 216c-11 163 -16 264 -16 304v52
c0 129 52 215 156 256c44 11 80 16 108 16z" />
    <glyph glyph-name="N.titl" unicode="&#xe023;" horiz-adv-x="1552" 
d="M511 1420h216c21 -25 85 -145 192 -360c5 -4 169 -314 492 -932h4v1256c0 7 -24 17 -72 28v8h208v-8c-48 -11 -72 -21 -72 -28v-1348c31 -19 55 -28 72 -28v-8h-308c-23 33 -255 473 -696 1320h-4v-1284c0 -5 24 -15 72 -28v-8h-204v8c48 13 72 22 72 28v1328h-12
c-72 0 -108 -85 -108 -256c0 -293 -35 -457 -104 -492c-31 -35 -78 -52 -140 -52h-8c-36 0 -73 4 -112 12v8c31 -5 58 -8 80 -8c123 0 184 71 184 212c-11 177 -16 283 -16 320v36c0 130 49 215 148 256c43 13 81 20 116 20z" />
    <glyph glyph-name="O.titl" unicode="&#xe024;" horiz-adv-x="3870" 
d="M3215 1416h56c153 0 283 -85 392 -256c70 -134 104 -272 104 -416v-56c0 -227 -73 -418 -220 -572c-92 -77 -186 -116 -280 -116h-52c-161 0 -297 93 -408 280c-29 63 -54 140 -76 232c-96 -27 -197 -40 -304 -40c-256 0 -654 71 -1192 212c-298 67 -534 100 -708 100h-8
c-196 0 -360 -39 -492 -116h-8c148 109 328 164 540 164h40c6 0 12 1 16 4c5 -3 10 -4 16 -4h20c177 0 586 -67 1228 -200c242 -37 422 -56 540 -56c93 0 193 13 300 40c-2 27 -4 47 -4 60c0 298 88 517 264 656c79 56 158 84 236 84zM2959 732v-4c102 67 192 161 268 280
c83 157 124 258 124 304c-39 29 -75 44 -108 44c-129 0 -219 -147 -268 -440c-10 -46 -16 -107 -16 -184zM3355 1300c0 -46 -37 -160 -112 -340c-31 -77 -95 -166 -192 -268c-9 -10 -40 -35 -92 -76c0 -209 51 -376 152 -500c46 -37 89 -56 128 -56c131 0 221 124 268 372
c14 70 20 144 20 220v56c0 252 -53 448 -160 588l-8 4h-4z" />
    <glyph glyph-name="P.titl" unicode="&#xe025;" horiz-adv-x="1428" 
d="M515 1420h564c142 0 250 -83 324 -248c11 -30 19 -76 24 -136c0 -151 -68 -268 -204 -352c-46 -24 -94 -36 -144 -36h-356v-624c60 -11 97 -16 112 -16v-8h-464v8h4l108 16v1340h-4c-42 0 -71 -16 -88 -48c-24 -47 -36 -195 -36 -444c-19 -133 -44 -210 -76 -232
c-33 -51 -88 -76 -164 -76h-4c-30 0 -62 3 -96 8v8c31 -3 54 -4 68 -4c117 0 176 67 176 200v40l-16 300c0 203 91 304 272 304zM723 1356v-644h220c116 0 195 60 236 180c16 46 24 93 24 140c0 147 -53 248 -160 304c-22 13 -62 20 -120 20h-200zM-1 584h8v-8h-8v8z" />
    <glyph glyph-name="R.titl" unicode="&#xe026;" horiz-adv-x="1536" 
d="M511 1420h564c138 0 243 -76 316 -228c21 -49 32 -101 32 -156v-4c0 -157 -73 -276 -220 -356c-38 -19 -80 -28 -128 -28c197 -371 311 -579 340 -624l120 -16v-8h-464v8h4c55 6 87 11 96 16c-203 388 -314 596 -332 624h-120v-624c63 -11 100 -16 112 -16v-8h-464v8h4
c8 0 44 5 108 16v1340c-75 0 -112 -59 -112 -176c-9 -282 -22 -434 -40 -456c-32 -112 -103 -168 -212 -168h-4c-36 0 -73 4 -112 12v8c31 -5 58 -8 80 -8c120 0 180 68 180 204v32l-16 304c0 203 89 304 268 304zM719 1356v-644h220c125 0 208 69 248 208
c8 42 12 77 12 104v20c0 146 -59 246 -176 300c-27 8 -57 12 -92 12h-212z" />
    <glyph glyph-name="S.titl" unicode="&#xe027;" horiz-adv-x="2056" 
d="M1408 1420h44c157 0 290 -73 400 -220c14 -32 24 -48 28 -48l20 84h8v-312h-8c0 104 -59 216 -176 336c-90 75 -186 112 -288 112h-24c-115 0 -204 -44 -268 -132c-16 -27 -24 -55 -24 -84c0 -116 147 -225 440 -328c235 -90 352 -234 352 -432v-56
c0 -101 -49 -190 -148 -268c-78 -48 -150 -72 -216 -72h-48c-88 0 -256 51 -504 152c-274 93 -477 140 -608 140h-48c-3 0 -4 1 -4 4l-8 -4h-4c-109 0 -210 -29 -304 -88c136 131 289 196 460 196c190 0 450 -95 780 -284c98 -45 180 -68 244 -68h4c149 0 249 53 300 160
c5 10 8 25 8 44v16c0 118 -156 229 -468 332c-216 88 -324 238 -324 448c0 189 101 310 304 364c27 5 53 8 80 8zM0 192h8v-4h-8v4z" />
    <glyph glyph-name="U.titl" unicode="&#xe028;" horiz-adv-x="1520" 
d="M511 1420h320v-8h-4c-9 0 -43 -5 -104 -16v-476c0 -120 -1 -268 -4 -444c0 -280 104 -420 312 -420h16c205 0 308 139 308 416v928l-40 12v8h204v-8l-40 -12v-808c0 -3 1 -4 4 -4l-4 -8v-32c0 -179 -40 -308 -120 -388c-102 -107 -227 -160 -376 -160h-8
c-194 0 -341 85 -440 256c-35 70 -52 141 -52 212v896h-12c-72 0 -108 -85 -108 -256c0 -293 -35 -457 -104 -492c-31 -35 -78 -52 -140 -52h-8c-36 0 -73 4 -112 12v8c31 -5 58 -8 80 -8c123 0 184 71 184 212c-11 179 -16 285 -16 316v40c0 130 49 215 148 256
c43 13 81 20 116 20z" />
    <glyph glyph-name="V.titl" unicode="&#xe029;" horiz-adv-x="1504" 
d="M519 1420h296v-8h-4c-64 -7 -96 -13 -96 -20l316 -876h4c168 499 267 795 296 888c-2 0 -13 3 -32 8v8h204v-8c-40 0 -64 -31 -72 -92c-5 -5 -155 -443 -448 -1316h-4c-5 2 -81 211 -228 628l-268 732h-12c-54 0 -87 -44 -100 -132c-11 -315 -22 -472 -32 -472
c-18 -72 -45 -121 -80 -148c-35 -32 -82 -48 -140 -48h-4c-30 0 -62 3 -96 8v8c31 -3 54 -4 68 -4c117 0 176 73 176 220c-11 188 -16 297 -16 328v4c0 195 91 292 272 292zM-1 584h12v-8h-12v8z" />
    <glyph glyph-name="W.titl" unicode="&#xe030;" horiz-adv-x="2364" 
d="M527 1420h288v-8h-4c-48 -5 -81 -11 -100 -16c206 -563 311 -857 316 -880c6 0 72 195 200 584c6 9 43 115 112 320h220c5 0 46 -112 124 -336c131 -355 199 -544 204 -568h4c200 587 300 883 300 888h-4c-17 5 -27 8 -32 8v8h208v-8c-36 0 -59 -20 -68 -60
c-34 -111 -186 -561 -456 -1348h-8c-45 134 -190 540 -436 1216h-4c0 -7 -137 -412 -412 -1216h-8c-34 105 -197 559 -488 1360h-4c-74 0 -112 -59 -112 -176c-8 -250 -19 -395 -32 -436c-21 -76 -54 -128 -100 -156c-31 -21 -71 -32 -120 -32h-4c-30 0 -62 3 -96 8v8
c32 -3 54 -4 68 -4c118 0 176 67 176 200v36l-16 308c0 200 95 300 284 300zM-1 584h8v-8h-8v8z" />
    <glyph glyph-name="X.titl" unicode="&#xe031;" horiz-adv-x="1544" 
d="M511 1420h304v-8h-4c-53 -5 -80 -11 -80 -16c144 -285 231 -452 260 -500l304 512h-4l-20 4v8h208v-8c-34 0 -62 -27 -84 -80c-222 -364 -336 -554 -340 -568c237 -467 365 -713 384 -740c17 -5 52 -11 104 -16v-8h-464v8c13 0 43 4 88 12c-171 331 -256 499 -256 504
c-9 -6 -113 -177 -312 -512c14 -3 22 -4 24 -4v-8h-204v8c32 0 54 20 68 60l356 584c-243 472 -364 709 -364 712c-75 0 -112 -59 -112 -176c-8 -284 -23 -442 -44 -472c-36 -101 -105 -152 -208 -152h-4c-36 0 -73 4 -112 12v8c31 -5 58 -8 80 -8c120 0 180 65 180 196v48
l-16 300c0 200 89 300 268 300z" />
    <glyph glyph-name="Y.titl" unicode="&#xe032;" horiz-adv-x="1484" 
d="M511 1420h308v-8h-4c-8 0 -35 -4 -80 -12l252 -640c18 25 122 240 312 644v4l-20 4v8h204v-8c-31 0 -51 -17 -60 -52c-249 -514 -379 -786 -388 -816v-520c66 -11 103 -16 112 -16v-8h-464v8h4c12 0 48 5 108 16v552c-3 18 -107 278 -312 780c0 5 -4 8 -12 8
c-72 0 -108 -80 -108 -240c0 -284 -29 -448 -88 -492c-34 -45 -89 -68 -164 -68c-36 0 -73 4 -112 12v8c31 -5 58 -8 80 -8c123 0 184 75 184 224c-13 198 -20 309 -20 332c0 148 59 240 176 276c37 8 68 12 92 12z" />
    <glyph glyph-name="Z.titl" unicode="&#xe033;" horiz-adv-x="1472" 
d="M511 1420h952l8 -4c-462 -861 -698 -1302 -708 -1324h4c186 -8 307 -12 364 -12h20c147 0 243 43 288 128c16 38 24 65 24 80h8v-280c0 -5 -3 -8 -8 -8h-980l-8 4l712 1328h-4c-219 8 -343 12 -372 12c-171 0 -276 -55 -316 -164c-8 -27 -12 -46 -12 -56h-8v240h-4
c-54 0 -87 -39 -100 -116c-7 -96 -14 -232 -20 -408c-15 -94 -36 -160 -64 -196c-41 -53 -99 -80 -172 -80h-4c-30 0 -62 3 -96 8v8c31 -3 54 -4 68 -4c117 0 176 67 176 200v36l-16 308c0 200 89 300 268 300zM-1 584h8v-8h-8v8z" />
    <glyph glyph-name="quotedbl" unicode="&#x22;" horiz-adv-x="819" 
d="M24 1398h194c7 0 11 -21 11 -61v-24c0 -103 -32 -185 -96 -246h-3c2 34 3 59 3 75v27l3 24h-27c-73 7 -109 42 -109 106v3c2 54 10 86 24 96zM324 1398h194c7 0 11 -21 11 -61v-24c0 -103 -32 -185 -96 -246h-3c2 34 3 59 3 75v27l4 24h-28c-73 7 -109 42 -109 106v3
c2 54 10 86 24 96z" />
    <glyph glyph-name="comma" unicode="," horiz-adv-x="819" 
d="M24 334h194c7 0 11 -20 11 -61v-24c0 -103 -32 -185 -96 -246h-3c2 34 3 59 3 75v28l3 24h-27c-73 6 -109 42 -109 105v4c2 53 10 85 24 95z" />
    </font>
</defs>
</svg>
